<svg id="Layer_1" data-name="Layer 1" xmlns="http://www.w3.org/2000/svg" xmlns:xlink="http://www.w3.org/1999/xlink" viewBox="0 0 3840 2160"><defs><style>.cls-1{fill:url(#linear-gradient);}.cls-2{opacity:0.5;}.cls-3{fill:#06e2ff;}.cls-4{fill:#ccc;}.cls-5{opacity:0.6;}.cls-6{fill:url(#linear-gradient-2);}.cls-7{fill:url(#linear-gradient-3);}.cls-8{fill:url(#linear-gradient-4);}.cls-9{fill:url(#linear-gradient-5);}.cls-10{fill:#00436d;}.cls-11{font-size:120.11px;}.cls-11,.cls-12,.cls-48{fill:#fff;}.cls-11,.cls-12{font-family:Montserrat-SemiBold, Montserrat;font-weight:700;}.cls-12{font-size:64px;}.cls-13{letter-spacing:-0.02em;}.cls-14{letter-spacing:-0.03em;}.cls-15,.cls-16,.cls-17,.cls-18,.cls-28,.cls-34,.cls-37,.cls-38,.cls-39,.cls-40,.cls-44,.cls-47,.cls-88,.cls-89{font-size:60.06px;}.cls-16{letter-spacing:-0.22em;}.cls-17,.cls-19{letter-spacing:0.97em;}.cls-18{letter-spacing:0.07em;}.cls-20,.cls-21,.cls-22,.cls-23,.cls-35,.cls-36,.cls-41,.cls-81,.cls-82,.cls-83{font-size:48.04px;}.cls-20{letter-spacing:-0.07em;}.cls-22,.cls-33{letter-spacing:0em;}.cls-23{letter-spacing:-0.01em;}.cls-24{letter-spacing:1.27em;}.cls-25,.cls-35{letter-spacing:-0.02em;}.cls-26{letter-spacing:-0.01em;}.cls-27{letter-spacing:-0.01em;}.cls-28{letter-spacing:0.37em;}.cls-29,.cls-36{letter-spacing:0em;}.cls-30{letter-spacing:0.02em;}.cls-31{letter-spacing:-0.02em;}.cls-32,.cls-41{letter-spacing:-0.03em;}.cls-34{letter-spacing:-0.01em;}.cls-37{letter-spacing:0.57em;}.cls-38{letter-spacing:0.97em;}.cls-39,.cls-81{letter-spacing:0.08em;}.cls-40{letter-spacing:0.13em;}.cls-42{letter-spacing:-0.01em;}.cls-43{letter-spacing:-0.01em;}.cls-44{letter-spacing:0.41em;}.cls-45{letter-spacing:0em;}.cls-46{letter-spacing:0.19em;}.cls-47{letter-spacing:0.1em;}.cls-48{font-size:56px;font-family:Montserrat-MediumItalic, Montserrat;font-style:italic;}.cls-49{letter-spacing:0.02em;}.cls-50{letter-spacing:-0.02em;}.cls-51{letter-spacing:-0.01em;}.cls-52,.cls-61{letter-spacing:-0.02em;}.cls-53{letter-spacing:-0.01em;}.cls-54{letter-spacing:0.02em;}.cls-55{letter-spacing:-0.01em;}.cls-56{letter-spacing:0.1em;}.cls-57{letter-spacing:0.89em;}.cls-58,.cls-90,.cls-91{font-size:60px;}.cls-58{letter-spacing:0.08em;}.cls-59,.cls-89{letter-spacing:0.97em;}.cls-60,.cls-61,.cls-62,.cls-63,.cls-64,.cls-65,.cls-75,.cls-76,.cls-77{font-size:48px;}.cls-62,.cls-67{letter-spacing:-0.01em;}.cls-63,.cls-86{letter-spacing:-0.01em;}.cls-64,.cls-85{letter-spacing:-0.01em;}.cls-65{letter-spacing:0em;}.cls-66{letter-spacing:1.27em;}.cls-68{letter-spacing:0.02em;}.cls-69{letter-spacing:0em;}.cls-70,.cls-77{letter-spacing:0em;}.cls-71,.cls-75{letter-spacing:-0.03em;}.cls-72{letter-spacing:-0.01em;}.cls-73{letter-spacing:-0.21em;}.cls-74{letter-spacing:0.08em;}.cls-76,.cls-79{letter-spacing:-0.02em;}.cls-78{letter-spacing:-0.03em;}.cls-80{letter-spacing:-0.01em;}.cls-82{letter-spacing:0.24em;}.cls-83,.cls-84{letter-spacing:1.27em;}.cls-87{letter-spacing:-0.02em;}.cls-88{letter-spacing:-0.23em;}.cls-90{letter-spacing:0.08em;}.cls-91{letter-spacing:0.05em;}</style><linearGradient id="linear-gradient" x1="1911.63" y1="-366.08" x2="1924.14" y2="1795.33" gradientUnits="userSpaceOnUse"><stop offset="0" stop-color="#fff"/><stop offset="0.21" stop-color="#76dcef"/><stop offset="0.4" stop-color="#02bee1"/><stop offset="0.99" stop-color="#00436d"/></linearGradient><linearGradient id="linear-gradient-2" x1="1931.26" y1="372.4" x2="1931.26" y2="1709.37" gradientUnits="userSpaceOnUse"><stop offset="0" stop-color="#fff"/><stop offset="0.4" stop-color="#02bee1"/><stop offset="0.99" stop-color="#00436d"/></linearGradient><linearGradient id="linear-gradient-3" x1="2122.86" y1="372.41" x2="2122.86" y2="1709.36" xlink:href="#linear-gradient-2"/><linearGradient id="linear-gradient-4" x1="2071.86" y1="372.36" x2="2071.86" y2="1709.39" xlink:href="#linear-gradient-2"/><linearGradient id="linear-gradient-5" x1="1789.21" y1="372.3" x2="1789.21" y2="1709.44" xlink:href="#linear-gradient-2"/></defs><title>BlueShark-Menu-1</title><rect class="cls-1" width="3840" height="2160"/><g class="cls-2"><path class="cls-3" d="M1074.24,2013.43l-36.21,5.14c-27.94,0-53.32-16.54-67.28-46.55L947,1921.3c-5.18-12.89-13.46-20.15-21.73-20.67H829v116.45H777.22V1636.75H947.47a131.83,131.83,0,0,1,131.94,131.94c0,56.94-36.74,106.06-87.44,124.15l24.32,53.86c5.69,12.88,13.46,20.18,21.74,20.18h36.21ZM829,1685.87v165.6H947.47c42.43,0,80.2-39.84,80.2-82.78,0-43.5-37.25-82.82-80.2-82.82Z"/><path class="cls-3" d="M1344.06,1932.17l31.57,39.85c-6.21,7.78-40.89,46.55-115.4,46.55-80.72,0-145.4-64.13-145.4-147,0-80.18,63.63-145.91,144.35-145.91,77.63,0,140.26,63.12,140.26,145.91a176.28,176.28,0,0,1-1,18.66H1168.13c9.29,44.5,46.57,78.13,92.1,78.13C1309.91,1968.41,1335.28,1942.53,1344.06,1932.17Zm-173.87-90H1343c-6.21-34.71-41.39-64.69-83.84-64.69C1215.72,1777.47,1180.54,1804.88,1170.19,1842.16Z"/><path class="cls-3" d="M1659.16,1932.17l31.55,39.85c-6.2,7.78-40.88,46.55-115.38,46.55-80.73,0-145.4-64.13-145.4-147,0-80.18,63.64-145.91,144.36-145.91,77.63,0,140.23,63.12,140.23,145.91a179.76,179.76,0,0,1-1,18.66H1483.21c9.32,44.5,46.56,78.13,92.12,78.13C1625,1968.41,1650.36,1942.53,1659.16,1932.17Zm-173.88-90h172.85c-6.21-34.71-41.39-64.69-83.84-64.69C1530.81,1777.47,1495.64,1804.88,1485.28,1842.16Z"/><path class="cls-3" d="M1892.31,1774.35h-62.62v242.73h-51.77V1774.35h-51.74v-47.07h51.74v-19.15c0-50.68,21.22-96.22,79.18-96.22l35.21,10.31v36.23H1857.1c-20.19,0-27.41,28.45-27.41,49.68v19.15h62.62Z"/></g><g class="cls-2"><path class="cls-4" d="M2202.15,1701.39c-22.25-10.83-48.66-15-77.63-15-71.41,0-144.88,56.95-144.88,140.26s73.47,140.24,144.88,140.24a145.32,145.32,0,0,0,112.28-52.29l36.76,36.76c-36.76,40.85-90.57,67.22-149,67.22-105.56,0-196.61-85.88-196.61-191.93s91-192,196.61-192c45.54,0,88,11.36,129.37,37.28v62.56h-45.54Z"/><path class="cls-4" d="M2410.71,1831.29c51.25,0,84.39,6.7,112.84,20.7v-18.13c0-39.33-33.62-60-71.38-60-31.58,0-49.18,3.1-69.91,13.93l-3.07,20.74H2337.8v-50.68c35.15-20.22,63.64-32.14,114.37-32.14,71.38,0,123.11,37.28,123.11,118v173.39h-41.37l-8.29-43c-28.47,22.76-62.62,44.47-114.91,44.47-61.55,0-98.29-41.86-98.29-93.62S2349.16,1831.29,2410.71,1831.29Zm10.4,141.29c40.85,0,74.51-22.27,102.44-49.2v-25.32c-27.45-13.48-66.77-20.74-107.62-20.74-39.35,0-53.29,23.83-53.29,47.63S2381.78,1972.58,2421.11,1972.58Z"/><path class="cls-4" d="M2766.49,1774.35h-62.64v242.73h-51.74V1774.35h-51.77v-47.07h51.77v-19.15c0-50.68,21.2-96.22,79.17-96.22l35.21,10.31v36.23h-35.21c-20.19,0-27.43,28.45-27.43,49.68v19.15h62.64Z"/><path class="cls-4" d="M3016.93,1932.17l32.62,40.89c-2.6,2.61-45.54,45.51-124.23,45.51-80.72,0-150.52-65.69-150.52-147,0-80.18,69.8-145.91,150.52-145.91,73,0,137.68,45.59,137.68,103.49a61.19,61.19,0,0,1-61.08,61.08H2828.07c9.33,44.5,50.7,78.13,97.25,78.13C2990.57,1968.41,3016.93,1931.17,3016.93,1932.17Zm-185.23-90h170.22c6.74,0,11.9-6.22,11.9-13,0-24.32-35.69-53.29-88.5-53.29C2882.92,1775.91,2845.16,1804.36,2831.7,1842.16Zm100.88-146.42H2899l33.1-59h47.61Z"/></g><g class="cls-5"><path class="cls-6" d="M2710.1,622.27c-127.5,9.37-301.3,191.92-387,274.79S2185.62,948.83,2108.86,936s-15.55-58-15.55-58c-58.28-9-102.39,29.13-102.39,29.13-61.41,3-150.69-47.48-192.77-58.85s-104.77-36.23-104.77-36.23l58.63,2.62c-55.37-139.32-7.73-330.73-7.73-330.73C1542,659,1664,920.5,1640.08,886.16c-1.36-1.95-2.7-4.06-4-6.35-22-38-38.73-118.78-38.73-118.78s-50.93,50-136.83,128.66-58.7,259.4-58.7,259.4c3.57,55.07-98,120.32-169.83,181.27-28.88,24.52-57,50.38-79.56,71.88,187.56-35.51,291.46-149.12,291.46-149.12,17.54,14.13,61.08,15.29,61.08,15.29-50.43-28.46-64.89-133.47-64.89-133.47,8.12,18.7,41.26,42.55,69.78,56.47s42.54-22.77,57.21-36.16,47.3,5.88,67.62-8.4,78.7-42.43,121.91-26.71,76.13-11.32,76.13-11.32c34.82,20.18,63.87,15.45,63.87,15.45,103-9.34,96.42,31.72,96.42,31.72,123.33-141.79-66.45-211.85-66.45-211.85,65.52-.13,130,65.35,130,65.35l344.53-14.17c-96,23.61-95,65.61-95,65.61-16-31-60-26.2-60-26.2,25.28,20.08,47.37,58.75,80.73,118.75s95.63,129.6,162.85,183.64S2599,1366.61,2599,1366.61s-5.69-8.43-35.75-21.54-32.35-84.88-43.37-138.37-32.45-121.83-32.56-175.12,82-179.22,118.67-236.4,52.34-85.89,52.34-85.89c6.52-7.34,24.1,5,24.1,5s22.45-14.64,17.65-42.66S2710.1,622.27,2710.1,622.27Z"/><path class="cls-7" d="M2166.73,1047.13s-49.4-.29-87.74,29.43c0,0,23.58,39.33,80.28,37.92C2159.27,1114.48,2113.4,1084.28,2166.73,1047.13Z"/><path class="cls-8" d="M1975.5,1200s-55,87.57-107.08,115.33c0,0,244.23,100,406.88,58.45C2275.3,1373.77,2065,1348.66,1975.5,1200Z"/><path class="cls-9" d="M1928.28,1180.67c-60.08,35.4-116.78,18.83-186.45,4.66s-91.68,34.41-91.68,34.41c22.51-12.32,42.61-.19,146.66,20S1928.28,1180.67,1928.28,1180.67Z"/></g><rect class="cls-10" x="163.88" y="144.22" width="1582.83" height="156.14" rx="14.88" ry="14.88" transform="translate(0.73 -3.13) rotate(0.19)"/><text class="cls-11" transform="matrix(1, 0, 0, 1, 192.77, 260.67)">Sandwiches and Burgers </text><text class="cls-12" transform="translate(90.82 568.46)">Appl<tspan class="cls-13" x="156.16" y="0">ew</tspan><tspan x="251.13" y="0">ood Smo</tspan><tspan class="cls-14" x="538.75" y="0">k</tspan><tspan x="576.63" y="0">ed Pulled Pork Burger</tspan><tspan class="cls-15" x="1282.03" y="0"> </tspan><tspan class="cls-16" x="1296.08" y="0">	</tspan><tspan class="cls-17" x="1297.2" y="0" xml:space="preserve">			</tspan><tspan class="cls-18" x="1513.4" y="0">$9.49</tspan><tspan class="cls-15"><tspan class="cls-19" x="0" y="72.07">	</tspan><tspan class="cls-20" x="72.07" y="72.07">T</tspan><tspan class="cls-21" x="97.77" y="72.07">ender roas</tspan><tspan class="cls-22" x="354.47" y="72.07">t</tspan><tspan class="cls-21" x="374.74" y="72.07">ed pork with a fresh apple sl</tspan><tspan class="cls-23" x="1057.58" y="72.07">a</tspan><tspan class="cls-21" x="1085.74" y="72.07">w and </tspan></tspan><tspan class="cls-21"><tspan class="cls-24" x="0" y="129.72">	</tspan><tspan x="72.07" y="129.72">choi</tspan><tspan class="cls-25" x="176.47" y="129.72">c</tspan><tspan x="202.7" y="129.72">e </tspan><tspan class="cls-26" x="242.62" y="129.72">o</tspan><tspan x="272.7" y="129.72">f side.</tspan></tspan><tspan x="0" y="278.59">Re</tspan><tspan class="cls-27" x="84.54" y="278.59">e</tspan><tspan x="122.3" y="278.59">f Burger</tspan><tspan class="cls-15" x="382.14" y="278.59"> </tspan><tspan class="cls-28" x="396.19" y="278.59">	</tspan><tspan class="cls-17" x="432.4" y="278.59" xml:space="preserve">															</tspan><tspan class="cls-18" x="1513.4" y="278.59">$9.49</tspan><tspan class="cls-21"><tspan class="cls-24" x="0" y="336.24">	</tspan><tspan x="72.07" y="336.24">Fresh ground chuck, choi</tspan><tspan class="cls-25" x="681.17" y="336.24">c</tspan><tspan x="707.4" y="336.24">e </tspan><tspan class="cls-26" x="747.32" y="336.24">o</tspan><tspan x="777.4" y="336.24">f cheese, maple ba</tspan><tspan class="cls-25" x="1226.65" y="336.24">c</tspan><tspan x="1252.89" y="336.24">on, </tspan><tspan class="cls-24" x="0" y="393.89">	</tspan><tspan x="72.07" y="393.89">lettu</tspan><tspan class="cls-25" x="188.43" y="393.89">c</tspan><tspan x="214.66" y="393.89">e, </tspan><tspan class="cls-29" x="265.73" y="393.89">t</tspan><tspan x="286" y="393.89">oma</tspan><tspan class="cls-29" x="394.97" y="393.89">t</tspan><tspan x="415.24" y="393.89">o and onion, se</tspan><tspan class="cls-30" x="776.63" y="393.89">r</tspan><tspan class="cls-31" x="797.77" y="393.89">v</tspan><tspan x="823.62" y="393.89">ed on a fresh ba</tspan><tspan class="cls-32" x="1206.23" y="393.89">k</tspan><tspan x="1234.68" y="393.89">ed </tspan><tspan class="cls-24" x="0" y="451.55">	</tspan><tspan class="cls-29" x="72.07" y="451.55">t</tspan><tspan x="92.34" y="451.55">oas</tspan><tspan class="cls-33" x="175.36" y="451.55">t</tspan><tspan x="195.64" y="451.55">ed bun.</tspan></tspan><tspan x="0" y="600.41">Garlic Parmesan Burger </tspan><tspan class="cls-34" x="779.12" y="600.41">	</tspan><tspan class="cls-17" x="792.73" y="600.41" xml:space="preserve">										</tspan><tspan class="cls-18" x="1513.4" y="600.41">$9.49</tspan><tspan class="cls-15"><tspan class="cls-19" x="0" y="672.48">	</tspan><tspan class="cls-21" x="72.07" y="672.48">Garlic and parmesan cheese, lettu</tspan><tspan class="cls-35" x="893.66" y="672.48">c</tspan><tspan class="cls-21" x="919.89" y="672.48">e, </tspan><tspan class="cls-36" x="970.96" y="672.48">t</tspan><tspan class="cls-21" x="991.24" y="672.48">oma</tspan><tspan class="cls-36" x="1100.2" y="672.48">t</tspan><tspan class="cls-21" x="1120.47" y="672.48">o and onion </tspan></tspan><tspan class="cls-21"><tspan class="cls-24" x="0" y="730.13">	</tspan><tspan x="72.07" y="730.13">se</tspan><tspan class="cls-30" x="124.72" y="730.13">r</tspan><tspan class="cls-31" x="145.86" y="730.13">v</tspan><tspan x="171.71" y="730.13">ed on a fresh ba</tspan><tspan class="cls-32" x="554.33" y="730.13">k</tspan><tspan x="582.77" y="730.13">ed </tspan><tspan class="cls-29" x="655.6" y="730.13">t</tspan><tspan x="675.88" y="730.13">oas</tspan><tspan class="cls-33" x="758.9" y="730.13">t</tspan><tspan x="779.17" y="730.13">ed bun.</tspan></tspan><tspan x="0" y="864.59">Grilled Chic</tspan><tspan class="cls-14" x="373.69" y="864.59">k</tspan><tspan x="411.58" y="864.59">en Club</tspan><tspan class="cls-15" x="658.1" y="864.59"> </tspan><tspan class="cls-37" x="672.15" y="864.59">	</tspan><tspan class="cls-38" x="720.67" y="864.59" xml:space="preserve">											</tspan><tspan class="cls-39" x="1513.4" y="864.59">$</tspan><tspan class="cls-40" x="1556.46" y="864.59">9.49</tspan><tspan class="cls-15"><tspan class="cls-19" x="0" y="936.65">	</tspan><tspan class="cls-21" x="72.07" y="936.65">On sourdough bread with grilled chic</tspan><tspan class="cls-41" x="976.73" y="936.65">k</tspan><tspan class="cls-21" x="1005.17" y="936.65">en, ba</tspan><tspan class="cls-35" x="1149.93" y="936.65">c</tspan><tspan class="cls-21" x="1176.16" y="936.65">on, </tspan></tspan><tspan class="cls-21"><tspan class="cls-24" x="0" y="994.31">	</tspan><tspan x="72.07" y="994.31">lettu</tspan><tspan class="cls-25" x="188.43" y="994.31">c</tspan><tspan x="214.66" y="994.31">e, </tspan><tspan class="cls-29" x="265.73" y="994.31">t</tspan><tspan x="286" y="994.31">oma</tspan><tspan class="cls-29" x="394.97" y="994.31">t</tspan><tspan x="415.24" y="994.31">o, </tspan><tspan class="cls-42" x="468.04" y="994.31">a</tspan><tspan class="cls-31" x="496.2" y="994.31">v</tspan><tspan x="522.05" y="994.31">o</tspan><tspan class="cls-43" x="552.46" y="994.31">c</tspan><tspan x="578.83" y="994.31">ado and cheese.</tspan></tspan><tspan x="0" y="1128.76">Jumbo Kosher dog</tspan><tspan class="cls-44" x="609.78" y="1128.76">	</tspan><tspan class="cls-17" x="648.6" y="1128.76" xml:space="preserve">												</tspan><tspan class="cls-18" x="1513.4" y="1128.76">$6.99</tspan><tspan x="0" y="1277.63">Gr</tspan><tspan class="cls-13" x="74.3" y="1277.63">o</tspan><tspan class="cls-45" x="113.66" y="1277.63">w</tspan><tspan x="172.99" y="1277.63">n-ups Grilled Cheese</tspan><tspan class="cls-46" x="837.49" y="1277.63">	</tspan><tspan class="cls-17" x="864.8" y="1277.63" xml:space="preserve">									</tspan><tspan class="cls-39" x="1513.4" y="1277.63">$</tspan><tspan class="cls-47" x="1556.46" y="1277.63">7</tspan><tspan class="cls-40" x="1597.42" y="1277.63">.49</tspan></text><text class="cls-48" transform="translate(401.04 363.97)">Sandwiches se<tspan class="cls-49" x="422.91" y="0">r</tspan><tspan class="cls-50" x="447.1" y="0">v</tspan><tspan x="476.1" y="0">ed with choi</tspan><tspan class="cls-50" x="826.27" y="0">c</tspan><tspan x="857.85" y="0">e </tspan><tspan class="cls-51" x="905.62" y="0">o</tspan><tspan x="940.78" y="0">f fries,</tspan><tspan x="103.85" y="67.2" xml:space="preserve"> chips, salad or a fresh fruit cup.</tspan></text><rect class="cls-10" x="2612.59" y="150.19" width="523.92" height="156.14" rx="14.88" ry="14.88"/><text class="cls-11" transform="translate(2666.64 273.19)">Salads</text><text class="cls-12" transform="translate(1976.75 568.03)">St<tspan class="cls-52" x="68.03" y="0">r</tspan><tspan class="cls-53" x="93.57" y="0">a</tspan><tspan x="131.07" y="0">wber</tspan><tspan class="cls-54" x="298.75" y="0">r</tspan><tspan x="326.91" y="0">y Pe</tspan><tspan class="cls-55" x="459.58" y="0">c</tspan><tspan x="494.71" y="0">an Salad</tspan><tspan class="cls-56" x="771.64" y="0">	</tspan><tspan class="cls-57" x="792.73" y="0" xml:space="preserve">											</tspan><tspan class="cls-58" x="1585.47" y="0">$8.99</tspan><tspan class="cls-15"><tspan class="cls-59" x="0" y="72.07">	</tspan><tspan class="cls-60" x="72.07" y="72.07">Fresh spring greens, fresh st</tspan><tspan class="cls-61" x="747.99" y="72.07">r</tspan><tspan class="cls-62" x="767.14" y="72.07">a</tspan><tspan class="cls-60" x="795.27" y="72.07">wberries, </tspan><tspan class="cls-63" x="1030.46" y="72.07">c</tspan><tspan class="cls-60" x="1056.82" y="72.07">andied pe</tspan><tspan class="cls-64" x="1299.21" y="72.07">c</tspan><tspan class="cls-65" x="1325.56" y="72.07">ans, </tspan></tspan><tspan class="cls-60"><tspan class="cls-66" x="0" y="129.67">	</tspan><tspan x="72.07" y="129.67">blue cheese st</tspan><tspan class="cls-52" x="416.46" y="129.67">r</tspan><tspan class="cls-67" x="435.61" y="129.67">a</tspan><tspan x="463.74" y="129.67">wber</tspan><tspan class="cls-68" x="589.5" y="129.67">r</tspan><tspan class="cls-69" x="610.62" y="129.67">y vinaigret</tspan><tspan class="cls-70" x="865.4" y="129.67">t</tspan><tspan x="885.65" y="129.67">e and grilled chic</tspan><tspan class="cls-71" x="1299.59" y="129.67">k</tspan><tspan x="1328.01" y="129.67">en.</tspan></tspan><tspan x="0" y="278.53">Chop </tspan><tspan class="cls-72" x="186.88" y="278.53">C</tspan><tspan x="230.46" y="278.53">obb</tspan><tspan class="cls-73" x="358.52" y="278.53">	</tspan><tspan x="360.33" y="278.53" xml:space="preserve"> Salad</tspan><tspan class="cls-74" x="556.23" y="278.53">	</tspan><tspan class="cls-57" x="576.53" y="278.53" xml:space="preserve">														</tspan><tspan class="cls-58" x="1585.47" y="278.53">$8.99</tspan><tspan class="cls-15"><tspan class="cls-59" x="0" y="350.6">	</tspan><tspan class="cls-60" x="72.07" y="350.6">Chopped mi</tspan><tspan class="cls-75" x="370.96" y="350.6">x</tspan><tspan class="cls-60" x="397.93" y="350.6">ed greens, ba</tspan><tspan class="cls-76" x="718.86" y="350.6">c</tspan><tspan class="cls-60" x="745.06" y="350.6">on, </tspan><tspan class="cls-77" x="829.97" y="350.6">t</tspan><tspan class="cls-60" x="850.23" y="350.6">oma</tspan><tspan class="cls-77" x="959.09" y="350.6">t</tspan><tspan class="cls-60" x="979.35" y="350.6">oes, cheddar, eggs, </tspan></tspan><tspan class="cls-60"><tspan class="cls-66" x="0" y="408.2">	</tspan><tspan x="72.07" y="408.2">grilled chic</tspan><tspan class="cls-78" x="341.24" y="408.2">k</tspan><tspan x="369.66" y="408.2">en, and choi</tspan><tspan class="cls-79" x="662.02" y="408.2">c</tspan><tspan x="688.23" y="408.2">e </tspan><tspan class="cls-80" x="728.12" y="408.2">o</tspan><tspan x="758.16" y="408.2">f dressing.</tspan></tspan><tspan x="0" y="542.6">Apple, Blueber</tspan><tspan class="cls-54" x="478.84" y="542.6">r</tspan><tspan x="507" y="542.6">y, Ba</tspan><tspan class="cls-52" x="656.63" y="542.6">c</tspan><tspan x="691.57" y="542.6">on Salad</tspan><tspan class="cls-81" x="970.86" y="542.6"> </tspan><tspan class="cls-82" x="985.95" y="542.6">	</tspan><tspan class="cls-83" x="1008.93" y="542.6" xml:space="preserve">								</tspan><tspan class="cls-58" x="1585.47" y="542.6">$8.99</tspan><tspan class="cls-21"><tspan class="cls-84" x="0" y="600.25">	</tspan><tspan class="cls-60" x="72.07" y="600.25">Blueberries, fresh apples, di</tspan><tspan class="cls-61" x="738.58" y="600.25">c</tspan><tspan class="cls-60" x="764.79" y="600.25">ed maple ba</tspan><tspan class="cls-61" x="1065.21" y="600.25">c</tspan><tspan class="cls-60" x="1091.42" y="600.25">on, grilled </tspan></tspan><tspan class="cls-60"><tspan class="cls-66" x="0" y="657.85">	</tspan><tspan x="72.07" y="657.85">chic</tspan><tspan class="cls-78" x="173.01" y="657.85">k</tspan><tspan x="201.42" y="657.85">en breast, pe</tspan><tspan class="cls-85" x="511.79" y="657.85">c</tspan><tspan x="538.14" y="657.85">ans, spring greens and lo</tspan><tspan class="cls-86" x="1136.69" y="657.85">c</tspan><tspan x="1163.04" y="657.85">al hon</tspan><tspan class="cls-87" x="1312.85" y="657.85">e</tspan><tspan x="1340.64" y="657.85">y drizzle. </tspan></tspan><tspan class="cls-70" x="0" y="792.25">C</tspan><tspan x="44.16" y="792.25">aesar Salad</tspan><tspan class="cls-39" x="413.11" y="792.25"> </tspan><tspan class="cls-88" x="431.97" y="792.25">	</tspan><tspan class="cls-89" x="432.4" y="792.25" xml:space="preserve">																</tspan><tspan class="cls-90" x="1585.47" y="792.25">$</tspan><tspan class="cls-91" x="1628.49" y="792.25">7</tspan><tspan class="cls-90" x="1666.12" y="792.25">.99</tspan><tspan class="cls-15"><tspan class="cls-59" x="0" y="864.32">	</tspan><tspan class="cls-60" x="72.07" y="864.32">Romaine and fresh dressing </tspan><tspan class="cls-77" x="759.8" y="864.32">t</tspan><tspan class="cls-60" x="780.06" y="864.32">ossed with parmesan cheese </tspan></tspan><tspan class="cls-60"><tspan class="cls-66" x="0" y="921.92">	</tspan><tspan x="72.07" y="921.92">and </tspan><tspan class="cls-70" x="176.95" y="921.92">t</tspan><tspan x="197.2" y="921.92">opped with grilled chic</tspan><tspan class="cls-71" x="758.07" y="921.92">k</tspan><tspan x="786.49" y="921.92">en and fresh made crou</tspan><tspan class="cls-70" x="1358.15" y="921.92">t</tspan><tspan x="1378.41" y="921.92">ons.</tspan></tspan></text></svg>